<?xml version="1.0" standalone="no"?>
<!DOCTYPE svg PUBLIC "-//W3C//DTD SVG 20010904//EN"
 "http://www.w3.org/TR/2001/REC-SVG-20010904/DTD/svg10.dtd">
<svg version="1.0" xmlns="http://www.w3.org/2000/svg"
 width="800.000000pt" height="800.000000pt" viewBox="0 0 800.000000 800.000000"
 preserveAspectRatio="xMidYMid meet">
<metadata>
Created by potrace 1.14, written by Peter Selinger 2001-2017
</metadata>
<g transform="translate(0.000000,800.000000) scale(0.100000,-0.100000)"
fill="#000000" stroke="none">
<path d="M2857 7464 c-4 -4 -38 -8 -77 -9 -39 -2 -74 -6 -78 -11 -4 -4 -1 -4
7 1 10 6 12 4 7 -4 -6 -8 -12 -9 -20 -2 -7 6 -15 9 -17 7 -4 -5 -66 -17 -89
-18 -8 0 -21 -5 -27 -11 -9 -6 -13 -5 -13 4 0 10 -3 10 -8 3 -4 -6 -20 -14
-37 -17 -50 -9 -89 -17 -110 -24 -27 -9 -47 -14 -62 -15 -7 -1 -13 -5 -13 -10
0 -5 -4 -6 -10 -3 -5 3 -10 1 -10 -6 0 -7 -10 -9 -26 -6 -16 3 -28 0 -31 -9
-2 -7 -11 -10 -18 -8 -7 3 -16 1 -20 -5 -3 -6 -15 -11 -26 -11 -10 0 -19 -4
-19 -10 0 -5 -7 -7 -15 -4 -8 4 -15 1 -15 -6 0 -6 -4 -9 -9 -5 -5 3 -16 -1
-23 -9 -14 -13 -45 -26 -62 -25 -5 0 -12 -3 -15 -8 -3 -4 -25 -18 -48 -30
-101 -54 -123 -67 -123 -75 0 -5 -4 -6 -10 -3 -5 3 -10 2 -10 -4 0 -10 -39
-27 -53 -23 -5 1 -6 -1 -3 -6 2 -4 -13 -19 -35 -32 -21 -14 -39 -28 -39 -33 0
-4 -4 -6 -9 -3 -5 3 -12 -1 -15 -10 -3 -8 -10 -12 -16 -9 -5 3 -10 -2 -10 -11
0 -10 -3 -15 -6 -11 -3 3 -17 -6 -30 -20 -13 -14 -24 -22 -24 -17 0 5 -5 1
-11 -9 -6 -9 -15 -15 -20 -11 -5 3 -8 2 -7 -3 2 -4 0 -9 -4 -11 -16 -5 -54
-47 -51 -54 2 -5 0 -8 -6 -8 -15 0 -71 -57 -64 -64 4 -3 -1 -6 -10 -6 -10 0
-17 -8 -17 -17 0 -9 -3 -14 -6 -10 -6 6 -34 -16 -34 -27 0 -4 -16 -22 -36 -41
-20 -19 -32 -35 -28 -35 4 0 -5 -11 -20 -25 -14 -13 -26 -26 -26 -29 0 -5 -8
-16 -52 -68 -10 -11 -15 -25 -11 -31 3 -5 1 -7 -4 -4 -6 4 -18 -9 -27 -28 -9
-19 -22 -35 -28 -35 -6 0 -8 -3 -5 -6 4 -4 -1 -19 -11 -33 -35 -53 -43 -67
-57 -98 -8 -17 -19 -35 -25 -38 -6 -4 -8 -11 -5 -16 4 -5 2 -9 -4 -9 -5 0 -8
-9 -6 -20 2 -11 -1 -19 -8 -17 -7 1 -11 -4 -9 -10 1 -7 -3 -13 -9 -13 -5 0 -7
-5 -4 -10 4 -6 1 -17 -5 -25 -6 -8 -8 -20 -4 -26 4 -8 3 -9 -4 -5 -7 4 -12 4
-13 -1 -1 -17 -8 -40 -23 -82 -9 -24 -13 -48 -9 -54 3 -6 1 -7 -5 -3 -11 6
-18 -27 -13 -56 0 -5 -3 -8 -9 -8 -5 0 -10 -12 -10 -26 0 -14 -3 -23 -8 -21
-4 3 -7 -8 -7 -24 -1 -16 4 -29 10 -29 5 0 2 -5 -7 -10 -10 -6 -15 -19 -13
-30 2 -11 0 -20 -4 -20 -4 0 -8 -12 -9 -27 -1 -16 -3 -43 -5 -60 -1 -18 -4
-33 -8 -33 -3 0 -5 -18 -4 -40 1 -22 -2 -40 -5 -40 -3 0 -5 -19 -4 -42 0 -24
-4 -49 -9 -55 -6 -9 -5 -13 2 -13 7 0 9 -5 4 -12 -9 -16 -11 -318 -1 -318 4 0
4 -10 -1 -23 -6 -14 -5 -30 1 -41 8 -14 7 -21 -3 -27 -11 -7 -11 -9 -1 -9 7 0
11 -4 8 -9 -4 -5 0 -12 6 -14 9 -4 9 -6 1 -6 -8 -1 -9 -10 -2 -33 5 -17 7 -34
4 -36 -3 -3 1 -12 8 -20 9 -13 9 -14 -1 -8 -6 4 -12 2 -12 -3 0 -6 4 -11 10
-11 5 0 9 -3 9 -7 -4 -26 2 -93 8 -90 5 3 8 -11 7 -31 0 -24 5 -39 15 -44 14
-6 13 -7 -2 -7 -16 -1 -16 -3 -2 -24 8 -13 12 -27 8 -30 -3 -4 -1 -7 4 -7 6 0
10 -11 8 -25 -1 -14 2 -28 7 -31 4 -3 6 -9 3 -14 -3 -5 -1 -11 4 -15 5 -3 8
-14 6 -25 -2 -12 0 -18 6 -15 8 5 14 -23 10 -47 0 -5 4 -8 10 -8 5 0 7 -4 4
-10 -3 -5 -2 -10 4 -10 6 0 8 -7 5 -15 -4 -8 -1 -15 6 -15 7 0 10 -7 6 -15 -3
-8 -1 -15 5 -15 6 0 7 -4 4 -10 -3 -5 -1 -10 4 -10 6 0 11 -6 11 -13 0 -19 24
-67 33 -67 5 0 5 -5 2 -11 -4 -5 1 -20 12 -31 10 -12 12 -18 6 -14 -9 5 -11 2
-7 -8 3 -9 9 -14 13 -12 3 2 6 -14 6 -35 0 -21 -4 -39 -10 -39 -5 0 -3 -5 5
-10 8 -5 10 -10 5 -10 -6 0 -12 -10 -12 -22 -1 -13 -7 -24 -12 -26 -5 -2 -7
-10 -4 -18 3 -7 -2 -17 -11 -20 -9 -3 -14 -10 -11 -14 3 -4 -4 -27 -14 -51
-11 -24 -17 -47 -15 -51 3 -5 0 -7 -7 -6 -7 2 -14 -4 -14 -12 -1 -8 -6 -28
-13 -43 -7 -16 -12 -33 -12 -38 0 -5 -5 -9 -11 -9 -6 0 -9 -9 -6 -20 3 -11 1
-18 -4 -14 -5 3 -9 0 -9 -5 0 -20 -2 -26 -26 -69 -14 -24 -19 -40 -12 -36 7 4
6 -1 -3 -12 -9 -10 -27 -45 -39 -76 -13 -32 -27 -58 -30 -58 -4 0 -7 -7 -8
-15 -1 -8 -3 -22 -4 -30 -1 -8 -6 -15 -11 -15 -5 0 -7 -7 -3 -15 3 -8 1 -15
-5 -15 -6 0 -7 -4 -4 -10 3 -5 2 -10 -4 -10 -6 0 -15 -18 -21 -40 -6 -22 -14
-39 -18 -36 -7 4 -12 -13 -15 -56 -1 -9 -6 -16 -11 -15 -6 1 -11 -2 -12 -8 0
-5 -7 -26 -15 -45 -7 -19 -12 -38 -11 -42 1 -5 -3 -8 -9 -8 -5 0 -7 -4 -4 -10
3 -6 1 -10 -5 -10 -7 0 -10 -6 -7 -14 3 -8 -1 -17 -9 -20 -8 -3 -14 -9 -13
-13 4 -19 -15 -73 -25 -73 -6 0 -4 -5 4 -10 8 -5 10 -10 4 -10 -24 0 -1 -96
29 -122 11 -10 16 -18 12 -18 -5 0 0 -6 10 -14 11 -8 23 -12 27 -10 5 3 8 0 8
-6 0 -6 5 -8 10 -5 6 3 10 1 10 -4 0 -13 22 -10 32 4 5 6 8 6 8 -2 0 -6 9 -9
20 -6 11 3 17 9 15 14 -3 4 4 6 15 4 11 -2 20 1 20 6 0 6 4 8 9 4 5 -3 17 2
25 11 9 8 16 12 16 7 0 -4 7 0 15 11 7 10 18 15 24 11 6 -3 11 -1 11 5 0 6 5
8 10 5 6 -3 10 -1 10 5 0 6 4 8 10 5 6 -3 10 -2 10 4 0 6 19 20 43 31 23 11
69 36 102 56 33 19 68 38 78 41 9 3 17 10 17 15 0 5 4 7 9 3 6 -3 14 2 19 11
5 9 12 16 15 16 19 0 47 12 47 20 0 5 5 6 10 3 6 -3 10 -2 10 3 0 5 15 16 33
23 17 7 38 19 45 26 8 7 17 11 22 8 4 -3 11 2 14 11 3 9 13 14 20 11 8 -3 17
1 20 10 4 9 9 13 12 10 4 -3 12 -1 20 6 31 28 44 37 44 33 0 -3 21 7 48 22 26
15 59 34 75 41 15 8 27 18 27 23 0 5 4 7 9 3 5 -3 12 -1 16 5 4 6 11 7 17 4 7
-5 9 -1 5 9 -4 11 -2 14 8 11 7 -3 24 2 37 10 14 9 28 13 31 9 4 -3 7 -2 7 3
0 13 73 9 78 -4 2 -6 10 -8 18 -5 8 3 14 0 14 -7 0 -6 5 -8 10 -5 6 3 10 1 10
-5 0 -6 4 -9 9 -5 5 3 12 1 16 -5 4 -6 11 -8 16 -5 5 4 9 2 9 -4 0 -10 78 -51
98 -51 7 0 12 -4 12 -10 0 -5 7 -10 16 -10 8 0 22 -7 30 -15 9 -8 12 -15 7
-15 -5 0 -9 -11 -9 -25 0 -14 3 -25 7 -25 9 0 6 -20 -4 -37 -5 -7 -4 -13 1
-13 5 0 8 -10 7 -22 -1 -13 2 -31 7 -42 7 -13 7 -16 -1 -12 -6 4 -11 3 -11 -3
0 -5 4 -12 10 -16 5 -3 6 -13 3 -21 -3 -9 0 -20 8 -25 8 -5 9 -9 3 -9 -6 0
-11 -7 -11 -15 0 -8 3 -15 7 -15 3 0 6 -15 5 -32 0 -18 3 -38 8 -45 5 -7 6
-17 2 -23 -3 -5 -1 -10 6 -10 8 0 8 -4 -1 -15 -10 -12 -10 -15 0 -15 7 0 10
-7 6 -15 -3 -8 0 -15 7 -15 8 0 6 -4 -3 -10 -9 -6 -10 -10 -3 -10 6 0 10 -9 8
-20 -2 -11 0 -20 4 -20 8 0 11 -18 11 -57 0 -13 4 -23 8 -23 4 0 9 -12 10 -26
1 -14 5 -31 9 -37 4 -7 9 -21 10 -31 2 -11 8 -25 14 -33 8 -9 8 -13 0 -13 -8
0 -6 -8 4 -23 8 -13 12 -27 8 -30 -3 -4 -1 -7 6 -7 7 0 11 -6 8 -14 -3 -8 1
-20 9 -27 8 -6 12 -14 9 -17 -3 -3 1 -12 8 -20 10 -13 9 -15 -3 -8 -13 7 -13
6 0 -6 16 -14 23 -31 24 -60 0 -9 5 -16 11 -15 5 1 9 -6 7 -15 -2 -10 2 -18 8
-18 5 0 10 -9 10 -20 0 -11 5 -20 11 -20 5 0 7 -4 4 -10 -3 -5 -1 -10 5 -10 6
0 8 -4 5 -10 -3 -5 -1 -10 4 -10 6 0 11 -7 11 -16 0 -8 7 -22 15 -31 8 -8 13
-19 10 -24 -4 -5 -2 -9 3 -9 8 0 36 -50 32 -58 -1 -2 7 -10 17 -18 10 -7 14
-14 8 -14 -5 0 1 -7 13 -16 12 -8 22 -22 22 -30 0 -8 9 -24 20 -36 11 -12 20
-28 20 -35 0 -8 5 -11 10 -8 6 3 10 0 10 -8 0 -8 7 -20 15 -27 8 -7 12 -17 8
-23 -3 -6 -1 -7 5 -3 7 4 12 4 12 -1 0 -10 33 -53 77 -99 17 -19 29 -34 27
-34 -3 0 16 -20 41 -45 25 -25 45 -50 45 -55 0 -6 5 -10 10 -10 12 0 53 -40
43 -41 -5 0 2 -4 15 -10 13 -5 20 -13 17 -19 -3 -5 -1 -10 4 -10 6 0 27 -16
47 -35 20 -19 41 -32 46 -28 6 3 8 2 5 -4 -3 -5 5 -18 19 -28 14 -10 37 -29
52 -42 15 -13 31 -23 35 -23 5 0 5 -5 2 -10 -4 -6 -3 -10 2 -9 16 4 43 -13 36
-24 -3 -6 -1 -7 5 -3 6 4 20 -1 31 -11 35 -32 51 -44 51 -38 0 3 10 -3 22 -14
11 -11 24 -18 28 -16 5 3 11 -2 14 -11 3 -8 10 -12 16 -9 5 3 10 1 10 -4 0 -6
7 -11 16 -11 8 0 12 -4 9 -10 -3 -5 3 -10 13 -10 11 0 25 -7 32 -15 7 -9 15
-13 18 -11 3 3 17 -3 32 -14 16 -11 33 -20 39 -20 6 0 11 -5 11 -11 0 -5 5 -7
12 -3 6 4 17 -1 25 -11 7 -11 13 -15 13 -11 0 5 7 3 15 -4 8 -7 15 -9 15 -4 0
5 4 3 9 -4 4 -7 18 -14 29 -15 12 -1 22 -4 22 -8 0 -3 19 -11 43 -18 23 -7 51
-20 61 -29 11 -10 16 -11 12 -4 -4 6 -2 12 3 12 6 0 11 -5 11 -11 0 -5 4 -7
10 -4 5 3 10 0 10 -7 0 -11 2 -10 9 0 7 11 9 11 14 -2 4 -9 14 -13 27 -11 11
2 20 0 20 -4 0 -4 6 -8 13 -8 6 -1 26 -5 42 -11 17 -5 40 -8 53 -7 12 1 22 -2
22 -7 0 -5 4 -7 9 -3 5 3 12 1 16 -4 3 -5 13 -10 23 -11 9 0 36 -2 59 -3 22
-1 39 -5 36 -9 -2 -5 14 -8 36 -8 22 0 43 -5 46 -10 4 -7 13 -7 26 0 10 6 19
7 19 2 0 -4 24 -9 53 -9 138 -4 175 -8 170 -17 -4 -5 -1 -6 8 0 20 12 79 12
79 0 0 -8 2 -8 8 0 4 5 43 11 87 12 109 2 163 7 171 15 4 3 16 2 27 -4 14 -8
18 -8 13 0 -4 6 -2 11 3 11 6 0 11 -6 11 -12 0 -10 3 -9 9 1 6 9 20 12 40 9
17 -2 31 0 31 5 0 5 6 7 14 4 8 -3 17 -1 20 6 3 9 5 9 5 0 1 -9 8 -10 24 -4
12 4 32 7 45 6 12 -1 22 1 22 5 0 4 11 6 25 5 14 -2 27 1 30 5 3 5 13 6 22 3
12 -5 14 -3 8 8 -8 12 -6 12 8 0 10 -7 17 -9 17 -3 0 6 8 9 18 7 9 -1 25 5 35
13 16 15 17 14 11 -4 -6 -16 -5 -17 7 -6 7 6 21 12 31 12 10 0 18 6 18 13 0 8
4 7 10 -3 5 -8 10 -10 10 -3 0 6 13 10 31 9 17 -1 33 3 36 10 2 7 15 11 29 9
13 -1 24 2 24 8 0 5 12 7 26 4 19 -3 24 -1 19 11 -5 13 -3 13 12 1 11 -9 14
-10 9 -1 -4 6 -4 13 1 13 4 1 21 3 38 5 16 2 31 8 33 14 2 5 10 10 18 10 8 0
34 9 56 20 23 11 48 20 55 20 7 0 13 4 13 8 0 7 43 27 64 29 5 1 12 5 15 10
13 17 72 44 83 37 7 -4 8 -3 4 4 -4 7 -1 12 8 12 9 0 16 4 16 10 0 5 7 7 15 4
9 -4 15 0 15 7 0 12 2 12 9 0 5 -8 11 -9 15 -3 3 6 19 7 40 2 19 -4 37 -5 40
-2 4 3 6 0 6 -6 0 -7 7 -12 15 -12 23 0 85 -32 79 -42 -3 -5 -2 -7 3 -6 14 4
53 -13 53 -23 0 -6 4 -8 9 -4 5 3 16 -2 24 -10 9 -8 19 -15 24 -15 4 0 19 -9
33 -20 14 -11 33 -20 43 -20 9 0 17 -4 17 -10 0 -5 7 -10 15 -10 8 0 15 -3 15
-7 0 -5 24 -19 53 -33 28 -14 55 -30 60 -37 4 -6 21 -14 37 -18 17 -4 30 -11
30 -16 0 -5 6 -9 13 -9 7 0 24 -10 37 -22 14 -13 25 -21 25 -19 0 8 65 -24 65
-31 0 -5 9 -8 21 -8 13 0 18 -4 13 -12 -5 -8 -2 -9 9 -5 11 4 17 1 17 -8 0 -8
7 -15 15 -15 15 0 56 -19 65 -31 3 -4 26 -17 53 -29 26 -12 47 -26 47 -32 0
-5 4 -7 9 -4 5 3 20 -4 35 -15 14 -11 26 -18 26 -14 0 3 10 -3 22 -15 20 -18
39 -25 61 -21 4 0 7 -3 7 -8 0 -13 108 -63 120 -56 6 3 10 1 10 -4 0 -15 53
-14 69 2 11 10 12 9 6 -1 -6 -11 -3 -11 15 0 29 17 84 68 74 68 -4 0 0 6 9 13
9 6 18 25 21 41 3 16 8 31 10 34 3 3 1 11 -5 18 -7 8 -7 14 1 19 7 4 5 11 -4
21 -9 8 -13 21 -10 29 4 8 1 15 -6 15 -6 0 -9 4 -5 9 3 5 0 13 -6 16 -5 4 -8
13 -5 20 2 7 -4 22 -15 34 -13 14 -15 21 -7 21 9 0 9 3 2 8 -12 8 -28 43 -26
55 1 4 -3 7 -10 7 -6 0 -8 3 -5 7 4 3 0 15 -10 25 -9 10 -13 21 -10 24 4 4 -3
20 -14 35 -11 16 -17 33 -14 39 3 5 1 10 -5 10 -6 0 -8 5 -5 10 3 6 1 10 -5
10 -6 0 -8 5 -5 10 3 6 1 10 -6 10 -7 0 -9 3 -6 7 4 3 2 11 -3 18 -5 6 -11 22
-14 36 -2 13 -8 23 -14 22 -6 -2 -9 6 -7 17 2 11 0 20 -6 20 -5 0 -9 9 -9 20
0 11 -5 20 -11 20 -5 0 -8 4 -4 9 3 5 1 12 -5 16 -6 4 -8 11 -5 16 4 5 2 9 -2
9 -5 0 -15 20 -22 45 -9 29 -19 45 -30 45 -12 0 -13 2 -4 8 10 6 10 12 -2 28
-8 10 -15 27 -15 37 0 11 -4 15 -12 11 -8 -5 -9 -2 -5 9 3 9 2 19 -4 22 -5 4
-7 11 -4 16 4 5 1 9 -4 9 -6 0 -11 6 -11 13 0 7 -9 32 -20 55 -11 22 -20 46
-20 51 0 6 -8 15 -17 20 -14 8 -15 10 -3 11 13 0 13 1 0 10 -8 5 -11 10 -7 10
5 0 2 7 -6 15 -9 8 -14 23 -13 32 2 10 -5 25 -14 33 -9 8 -16 23 -14 33 1 9
-2 17 -6 17 -8 0 -26 58 -22 73 1 4 -2 7 -8 7 -5 0 -10 9 -10 20 0 11 -4 20
-8 20 -5 0 -9 31 -9 70 1 38 5 70 10 70 4 0 6 4 2 9 -3 5 -1 12 5 16 5 3 10
15 10 26 0 10 5 19 11 19 5 0 8 4 4 9 -3 5 -1 12 5 16 5 3 10 15 10 26 0 10 5
19 10 19 6 0 10 9 10 20 0 11 5 20 12 20 6 0 8 3 5 7 -4 3 -2 12 4 20 6 7 9
13 5 13 -4 0 1 14 9 30 9 17 13 35 10 40 -3 5 0 12 6 16 8 5 9 3 4 -6 -5 -8
-4 -11 3 -6 6 4 9 13 6 21 -3 8 -2 20 2 27 5 7 10 19 11 26 7 29 12 47 13 50
2 1 3 5 4 10 1 4 5 13 9 20 5 7 3 12 -5 12 -9 0 -9 3 2 10 8 5 16 17 17 27 5
59 8 73 14 73 3 0 5 11 4 25 -2 14 0 25 4 25 5 0 7 16 6 36 -1 19 2 37 5 39 6
4 8 18 13 98 1 15 5 27 9 27 8 0 5 21 -6 39 -7 10 -5 12 3 6 10 -6 12 5 9 48
-2 42 0 53 9 45 9 -7 10 -2 3 24 -12 40 -12 40 -2 35 8 -6 8 61 -1 69 -4 4 -3
14 2 23 8 17 7 241 -2 278 -3 13 -1 25 4 29 6 3 6 10 1 17 -5 7 -10 29 -10 50
-1 21 -4 42 -7 47 -3 4 1 11 7 13 10 4 10 6 0 6 -7 1 -10 6 -6 12 3 6 0 15 -7
20 -11 7 -11 9 -1 9 7 0 10 5 6 11 -4 7 -9 30 -11 53 -2 22 -8 45 -13 50 -6 6
-5 16 1 28 5 10 6 18 1 18 -7 0 -9 8 -13 65 -1 14 -4 25 -8 25 -4 0 -8 10 -9
23 -2 25 -10 62 -12 62 -2 0 -10 36 -13 60 -1 11 -5 22 -9 25 -4 3 -9 18 -12
34 -3 15 -10 34 -17 42 -9 11 -9 14 1 14 9 0 7 6 -5 20 -10 11 -19 31 -21 45
-1 14 -7 31 -12 38 -6 7 -11 14 -11 17 -8 36 -15 50 -23 50 -5 0 -6 4 -3 10 8
13 -19 52 -29 43 -4 -4 -4 0 -1 8 6 15 -18 73 -26 64 -3 -2 -5 5 -6 16 -1 11
-14 36 -28 55 -14 19 -23 39 -20 44 3 6 -1 10 -10 10 -9 0 -13 5 -10 10 3 6 1
10 -5 10 -6 0 -8 4 -5 10 3 6 1 10 -6 10 -7 0 -10 3 -6 6 5 5 -10 27 -41 60
-7 7 -14 17 -15 21 -1 4 -5 7 -9 6 -4 -2 -5 4 -2 12 4 8 1 15 -6 15 -6 0 -9 4
-5 9 3 5 -4 12 -15 16 -13 4 -20 15 -21 33 0 15 -3 22 -6 15 -3 -10 -7 -10
-18 0 -9 9 -10 14 -1 19 7 5 5 8 -6 8 -10 0 -18 7 -18 15 0 9 -7 18 -15 21 -8
4 -15 10 -15 16 0 5 -7 16 -15 24 -8 9 -15 12 -15 7 0 -4 -9 7 -20 25 -11 18
-27 35 -35 38 -8 4 -15 12 -15 20 0 8 -8 14 -17 14 -9 0 -13 3 -10 6 7 7 -42
54 -55 54 -5 0 -7 3 -6 8 1 4 -12 21 -30 39 -17 17 -32 29 -32 27 0 -3 -21 15
-47 40 -26 25 -53 46 -61 46 -7 0 -10 5 -7 10 3 6 2 10 -4 10 -6 0 -22 11 -36
25 -14 14 -25 22 -25 18 -1 -4 -10 3 -20 16 -11 13 -20 19 -20 15 0 -5 -5 -1
-11 9 -5 9 -18 17 -27 17 -9 0 -23 9 -30 20 -7 11 -19 20 -27 20 -8 0 -15 5
-15 10 0 6 -7 10 -15 10 -8 0 -15 5 -15 11 0 5 -5 7 -10 4 -6 -3 -13 1 -16 9
-3 9 -10 13 -15 10 -5 -3 -9 0 -9 7 0 7 -3 9 -7 6 -3 -4 -18 3 -31 15 -14 13
-22 16 -18 8 4 -8 -2 -4 -14 10 -12 14 -25 24 -29 23 -12 -5 -41 9 -41 19 0 6
-3 9 -6 5 -3 -3 -22 3 -42 13 -19 11 -39 17 -44 14 -5 -3 -7 0 -6 8 2 8 -6 13
-19 12 -13 -1 -23 3 -23 7 0 5 -6 8 -12 7 -7 -2 -12 3 -10 10 1 7 -3 12 -10
11 -24 -3 -80 14 -85 26 -2 7 -13 11 -24 8 -10 -3 -19 -1 -19 4 0 5 -10 10
-22 10 -13 1 -24 7 -26 12 -3 8 -10 7 -24 0 -15 -8 -19 -8 -14 0 4 7 -1 11
-13 11 -12 0 -21 4 -21 9 0 6 -9 8 -20 6 -11 -2 -22 1 -25 6 -4 5 -11 7 -16 4
-5 -4 -9 -1 -9 5 0 6 -4 8 -10 5 -5 -3 -19 -1 -30 5 -15 8 -20 8 -20 -2 0 -9
-3 -9 -10 2 -5 8 -24 15 -42 15 -19 1 -39 4 -46 9 -7 4 -16 4 -22 1 -5 -3 -10
-1 -10 4 0 6 -3 10 -7 10 -20 -3 -34 2 -28 11 3 6 1 10 -5 10 -6 0 -9 4 -5 9
3 5 1 12 -4 16 -6 3 -8 12 -5 19 3 8 0 17 -5 21 -6 3 -9 11 -6 16 4 5 1 9 -4
9 -6 0 -11 5 -11 11 0 5 6 7 13 4 6 -4 3 1 -7 9 -11 9 -17 16 -14 16 11 0 -27
96 -45 114 -19 19 -23 31 -7 21 6 -3 10 -2 10 4 0 5 -7 14 -16 19 -9 5 -15 12
-13 16 4 12 -24 76 -33 76 -5 0 -6 5 -3 10 3 6 1 10 -5 10 -6 0 -8 5 -5 10 3
6 1 10 -5 10 -6 0 -8 5 -5 10 3 6 1 10 -5 10 -6 0 -9 4 -6 9 4 5 2 11 -3 13
-5 1 -11 10 -13 18 -2 8 -11 23 -20 34 -10 11 -18 26 -18 33 0 7 -4 13 -10 13
-5 0 -10 7 -10 16 0 9 -5 12 -12 8 -7 -4 -10 -4 -6 1 8 9 -22 65 -34 65 -4 0
-8 6 -8 13 0 7 -9 19 -19 27 -11 7 -18 17 -15 22 3 4 0 8 -7 8 -7 0 -10 3 -6
6 3 3 -4 17 -16 29 -22 23 -69 78 -106 122 -10 13 -20 20 -23 17 -3 -3 -8 7
-12 20 -3 14 -10 25 -14 23 -4 -1 -31 22 -61 51 -29 28 -57 52 -63 52 -5 0 -6
5 -3 10 3 6 1 10 -5 10 -5 0 -24 12 -40 28 -51 46 -58 51 -64 45 -3 -4 -6 1
-6 11 0 9 -5 14 -10 11 -6 -3 -13 1 -16 9 -3 9 -12 16 -20 16 -8 0 -14 3 -14
8 0 4 -14 13 -30 20 -17 8 -28 18 -24 23 3 5 -2 9 -10 9 -9 0 -16 5 -16 11 0
5 -4 8 -8 5 -11 -7 -64 29 -55 37 3 4 -2 7 -13 7 -11 0 -30 7 -42 16 -12 8
-22 12 -22 8 0 -4 -9 3 -20 16 -11 13 -20 20 -20 15 0 -4 -11 0 -25 9 -13 9
-31 16 -40 16 -8 0 -15 5 -15 10 0 6 -8 10 -17 10 -9 0 -25 8 -36 18 -11 9
-17 11 -13 5 5 -9 -1 -9 -21 2 -57 29 -97 43 -105 39 -4 -3 -8 -1 -8 4 0 5 -6
9 -12 10 -25 2 -48 8 -54 15 -4 4 -18 7 -31 7 -13 0 -23 3 -23 8 0 4 -14 8
-31 8 -17 1 -34 6 -38 10 -3 5 -19 10 -36 12 -34 3 -70 10 -70 12 0 1 -12 3
-26 4 -14 2 -31 6 -37 10 -7 4 -12 2 -12 -6 0 -8 -3 -9 -8 -3 -11 16 -54 23
-179 29 -39 2 -76 7 -82 10 -6 4 -11 1 -11 -6 0 -9 -3 -10 -8 -2 -8 13 -40 12
-61 -1 -9 -5 -12 -4 -8 1 3 6 -9 11 -29 11 -18 1 -31 -3 -28 -8 3 -5 -7 -4
-21 1 -33 13 -38 13 -30 0 7 -12 -17 -9 -26 3 -3 4 -8 4 -12 1z"/>
</g>
</svg>
